<svg width="34" height="33" viewBox="0 0 34 33" fill="none" xmlns="http://www.w3.org/2000/svg">
<path fill-rule="evenodd" clip-rule="evenodd" d="M24.6921 24.1539H8.12915C6.60457 24.1539 5.36865 22.9179 5.36865 21.3934V10.3514C5.36865 8.82684 6.60457 7.59094 8.12915 7.59094H25.6123C26.4381 7.54355 27.1941 8.05301 27.4602 8.83625C27.7263 9.6195 27.437 10.484 26.7532 10.9495L18.1958 17.5287C17.1605 18.3245 15.7092 18.2862 14.7175 17.4367L9.40817 12.8911C9.15833 12.6774 9.04146 12.3466 9.10158 12.0234C9.16173 11.7002 9.38973 11.4336 9.6997 11.3241C10.0097 11.2146 10.3545 11.2787 10.6044 11.4924L15.9137 16.038C16.2516 16.3121 16.7353 16.3121 17.0731 16.038L25.6307 9.45886L8.12915 9.43125C7.62096 9.43125 7.20898 9.84322 7.20898 10.3514V21.3934C7.20898 21.9016 7.62096 22.3136 8.12915 22.3136H24.6921C25.2003 22.3136 25.6123 21.9016 25.6123 21.3934V14.0321C25.6123 13.5239 26.0242 13.1119 26.5324 13.1119C27.0406 13.1119 27.4525 13.5239 27.4525 14.0321V21.3934C27.4525 22.9179 26.2167 24.1539 24.6921 24.1539Z" fill="white"/>
</svg>
