<svg width="20" height="18" viewBox="0 0 20 18" fill="none" xmlns="http://www.w3.org/2000/svg">
<path d="M1.99965 9.88211H4.89965V15.9996C4.89965 16.4967 5.30259 16.8996 5.79965 16.8996H13.3996C13.6383 16.8996 13.8673 16.8048 14.036 16.636C14.2048 16.4672 14.2996 16.2383 14.2996 15.9996V9.88211H17.1996C17.5706 9.88211 17.9036 9.65451 18.0382 9.30885C18.1729 8.96321 18.0817 8.57033 17.8085 8.31935L10.2085 1.33686C9.86425 1.02053 9.33505 1.02053 8.99075 1.33686L1.39074 8.31935C1.11757 8.57033 1.02638 8.96321 1.16105 9.30885C1.29573 9.65451 1.62869 9.88211 1.99965 9.88211Z" stroke="white" stroke-width="2.25" stroke-linejoin="round"/>
</svg>
